Coordinates
version=1
nRows=10
nColumns=46
inDegrees=yes

Units are S.I. units (second, meters, Newtons, ...)
Angles are in degrees.

endheader
time	pelvis_tilt	pelvis_list	pelvis_rotation	pelvis_tx	pelvis_ty	pelvis_tz	bb_angle	bb_tx	bb_ty	bb_tz	hip_flexion_r	hip_adduction_r	hip_rotation_r	knee_angle_r	knee_angle_r_beta	ankle_angle_r	subtalar_angle_r	mtp_angle_r	crank_angle_r	hip_flexion_l	hip_adduction_l	hip_rotation_l	knee_angle_l	knee_angle_l_beta	ankle_angle_l	subtalar_angle_l	mtp_angle_l	crank_angle_l	lumbar_extension	lumbar_bending	lumbar_rotation	arm_flex_r	arm_add_r	arm_rot_r	elbow_flex_r	pro_sup_r	wrist_flex_r	wrist_dev_r	arm_flex_l	arm_add_l	arm_rot_l	elbow_flex_l	pro_sup_l	wrist_flex_l	wrist_dev_l
      0.00500000	    -23.35632619	      6.28239900	      2.53035404	      0.14283059	      1.10251668	     -0.26866600	      0.00000000	      0.50000000	      0.00000000	      0.25000000	     51.72233479	     -9.37128678	      2.57535643	     51.18791694	      0.89339769	      4.51372071	    -10.17340225	      0.00000000	      0.00000000	     97.14704447	     -6.01329941	     -2.99098937	    104.91784414	      1.83116182	     21.23737152	      0.65476148	      0.00000000	      0.00000000	    -40.58046239	     -1.26598851	     -8.44528738	     77.94611304	     -4.37682568	     35.58017084	     34.42405228	     45.29509107	      0.00000000	      0.00000000	     83.29557154	    -20.47192477	     62.57415706	     31.98230576	     50.73494370	      0.00000000	      0.00000000
      0.01000000	    -23.36097108	      6.25212283	      2.50758910	      0.14282667	      1.10245835	     -0.26864115	      0.00000000	      0.50000000	      0.00000000	      0.25000000	     51.72691761	     -9.32339288	      2.56851097	     51.18058835	      0.89326978	      4.47270244	    -10.26809715	      0.00000000	      0.00000000	     97.17059052	     -6.04372204	     -2.94632841	    104.94237113	      1.83158990	     21.27623195	      0.82749321	      0.00000000	      0.00000000	    -40.50358604	     -1.22115391	     -8.48908960	     78.15623754	     -3.91986533	     35.46848016	     33.47894189	     44.87919077	      0.00000000	      0.00000000	     83.07603822	    -20.22450429	     61.87962740	     31.47266838	     50.09636172	      0.00000000	      0.00000000
      0.01500000	    -23.32021073	      6.26668284	      2.50974473	      0.14279988	      1.10250687	     -0.26865637	      0.00000000	      0.50000000	      0.00000000	      0.25000000	     51.68452550	     -9.35168066	      2.55287769	     51.17133623	      0.89310830	      4.49547902	    -10.19014206	      0.00000000	      0.00000000	     97.12846139	     -6.02890971	     -2.95537470	    104.94303538	      1.83160149	     21.27268297	      0.84941310	      0.00000000	      0.00000000	    -40.57490411	     -1.25176893	     -8.48974712	     78.14035603	     -4.30009044	     36.36869007	     33.99103909	     44.72539172	      0.00000000	      0.00000000	     83.45777771	    -20.51207401	     63.42869671	     31.66428522	     49.90409810	      0.00000000	      0.00000000
      0.02000000	    -23.33389772	      6.17278713	      2.55680062	      0.14288825	      1.10276755	     -0.26892253	      0.00000000	      0.50000000	      0.00000000	      0.25000000	     51.58880314	     -9.32584347	      2.44999113	     51.02257891	      0.89051199	      4.47204096	    -10.19930591	      0.00000000	      0.00000000	     97.13535934	     -5.95661423	     -2.89923309	    104.90752629	      1.83098174	     21.23521832	      0.75718484	      0.00000000	      0.00000000	    -40.56103797	     -1.09575822	     -8.50113690	     78.19347390	     -4.12715691	     36.17768432	     33.79889005	     44.29600326	      0.00000000	      0.00000000	     83.18579063	    -20.36153658	     62.58412251	     31.61283146	     49.20750219	      0.00000000	      0.00000000
      0.02500000	    -23.44833710	      6.11608526	      2.48399376	      0.14281570	      1.10246840	     -0.26891808	      0.00000000	      0.50000000	      0.00000000	      0.25000000	     51.73438427	     -9.21246173	      2.48715330	     51.03613733	      0.89074863	      4.44270755	    -10.20412693	      0.00000000	      0.00000000	     97.29476263	     -6.01937222	     -2.82051056	    104.94385747	      1.83161584	     21.24536697	      0.72541848	      0.00000000	      0.00000000	    -40.42574500	     -1.11403768	     -8.36019999	     78.12398922	     -4.37149527	     36.54952346	     34.10096562	     44.12754208	      0.00000000	      0.00000000	     83.29779788	    -20.47374608	     63.48874055	     31.85986994	     48.99699210	      0.00000000	      0.00000000
      0.03000000	    -23.40131133	      6.10597499	      2.48292828	      0.14287636	      1.10253610	     -0.26891050	      0.00000000	      0.50000000	      0.00000000	      0.25000000	     51.66852385	     -9.20697738	      2.47649013	     51.01345816	      0.89035281	      4.42792476	    -10.20717582	      0.00000000	      0.00000000	     97.25020896	     -6.01676845	     -2.78811985	    104.96510630	      1.83198670	     21.29927224	      0.85304930	      0.00000000	      0.00000000	    -40.47944062	     -1.10479010	     -8.41159804	     78.05001939	     -4.23552108	     36.12402253	     34.23385309	     44.09415604	      0.00000000	      0.00000000	     83.21509159	    -20.45062049	     63.03290965	     31.86252097	     48.92089038	      0.00000000	      0.00000000
      0.03500000	    -23.25487997	      6.26568022	      2.54073857	      0.14276371	      1.10302214	     -0.26891807	      0.00000000	      0.50000000	      0.00000000	      0.25000000	     51.52554076	     -9.40076647	      2.49827452	     50.99992190	      0.89011656	      4.49656723	    -10.04382227	      0.00000000	      0.00000000	     97.01508624	     -5.93342517	     -2.98109844	    104.87908161	      1.83048529	     21.22683853	      0.71692055	      0.00000000	      0.00000000	    -40.67473913	     -1.18408771	     -8.53846569	     78.22089826	     -4.15774668	     36.25729988	     33.86825307	     43.87839292	      0.00000000	      0.00000000	     83.29958824	    -20.34617305	     62.96083616	     31.64070262	     48.52078202	      0.00000000	      0.00000000
      0.04000000	    -23.31549783	      6.23534791	      2.52565804	      0.14271514	      1.10284670	     -0.26894616	      0.00000000	      0.50000000	      0.00000000	      0.25000000	     51.60694153	     -9.36477662	      2.49751766	     51.02044442	      0.89047474	      4.46790940	    -10.07880506	      0.00000000	      0.00000000	     97.10715980	     -5.94165529	     -2.94225141	    104.90069921	      1.83086259	     21.19520683	      0.65825326	      0.00000000	      0.00000000	    -40.56741294	     -1.16168037	     -8.50187091	     78.25210231	     -3.89396009	     35.84448093	     33.43704349	     43.58222535	      0.00000000	      0.00000000	     83.01228934	    -20.06266076	     61.85481144	     31.53555856	     48.04199820	      0.00000000	      0.00000000
      0.04500000	    -23.26452138	      6.18786852	      2.44193268	      0.14283104	      1.10295969	     -0.26860412	      0.00000000	      0.50000000	      0.00000000	      0.25000000	     51.52235359	     -9.23207469	      2.52303244	     50.96183009	      0.88945173	      4.44465647	    -10.16162914	      0.00000000	      0.00000000	     97.05822641	     -6.08006721	     -2.88944808	    104.93212390	      1.83141105	     21.22852775	      0.73885537	      0.00000000	      0.00000000	    -40.63373890	     -1.18583102	     -8.43704180	     78.26905639	     -3.95371266	     36.12779472	     33.50797210	     43.55655956	      0.00000000	      0.00000000	     83.05924290	    -20.23166972	     62.17597634	     31.70755316	     48.17942589	      0.00000000	      0.00000000
      0.05000000	    -23.23618864	      6.21570845	      2.45208327	      0.14281533	      1.10301523	     -0.26863243	      0.00000000	      0.50000000	      0.00000000	      0.25000000	     51.50036359	     -9.26800249	      2.52934963	     50.96053504	      0.88942913	      4.41874650	    -10.16843245	      0.00000000	      0.00000000	     97.02036774	     -6.05943823	     -2.91544512	    104.93053746	      1.83138336	     21.24435904	      0.76157124	      0.00000000	      0.00000000	    -40.69851037	     -1.21202077	     -8.41963902	     78.19474729	     -4.30299647	     36.52657639	     34.12347533	     43.68633829	      0.00000000	      0.00000000	     83.45735848	    -20.52067953	     63.67092787	     31.84701474	     48.60616572	      0.00000000	      0.00000000
